<svg width="24" height="24" viewBox="0 0 24 24" fill="none" xmlns="http://www.w3.org/2000/svg">
<path fill-rule="evenodd" clip-rule="evenodd" d="M21.1079 0.5H2.7373C1.4125 0.5 0.5 1.4385 0.5 2.7647V21.1949C0.5 22.5208 1.4125 23.5 2.7373 23.5H21.1079C22.4328 23.5 23.5 22.5208 23.5 21.1948V2.7647C23.5 1.4385 22.4328 0.5 21.1079 0.5V0.5Z" stroke="#263151"/>
<path d="M0.5 7.5H23.5" stroke="#263151"/>
<path d="M4.5 7.45215V23.5" stroke="#263151"/>
<path d="M9.5 7.45215V23.5" stroke="#263151"/>
<path d="M14.5 7.45215V23.5" stroke="#263151"/>
<path d="M19.5 7.45215V23.5" stroke="#263151"/>
<path d="M0.5 19.5H23.5" stroke="#263151"/>
<path d="M0.5 15.5H23.5" stroke="#263151"/>
<path d="M0.5 11.5H23.5" stroke="#263151"/>
<path fill-rule="evenodd" clip-rule="evenodd" d="M7.64177 4.39646C8.10138 4.39646 8.47397 4.02387 8.47397 3.56426C8.47397 3.10464 8.10138 2.73206 7.64177 2.73206C7.18216 2.73206 6.80957 3.10464 6.80957 3.56426C6.80957 4.02387 7.18216 4.39646 7.64177 4.39646Z" stroke="#263151"/>
<path fill-rule="evenodd" clip-rule="evenodd" d="M16.3583 4.39646C16.8179 4.39646 17.1905 4.02387 17.1905 3.56426C17.1905 3.10464 16.8179 2.73206 16.3583 2.73206C15.8987 2.73206 15.5261 3.10464 15.5261 3.56426C15.5261 4.02387 15.8987 4.39646 16.3583 4.39646Z" stroke="#263151"/>
</svg>
