<svg width="24" height="24" viewBox="0 0 24 24" fill="none" xmlns="http://www.w3.org/2000/svg">
<g clip-path="url(#clip0)">
<rect x="1.51587" y="5.28101" width="15.2967" height="10.6201" stroke="#263151"/>
<path d="M4.61298 18.707H2.46326V15.9011H16.8126V8.11304H21.3322C21.3322 8.11304 23.0053 9.60401 23.0053 12.1034V15.9012H23.4156V18.7071H21.4493" stroke="#263151"/>
<path d="M17.6255 18.707H8.43652" stroke="#263151"/>
<path fill-rule="evenodd" clip-rule="evenodd" d="M19.5375 22.0284C20.7588 22.0284 21.7489 21.0384 21.7489 19.8171C21.7489 18.5958 20.7588 17.6057 19.5375 17.6057C18.3162 17.6057 17.3262 18.5958 17.3262 19.8171C17.3262 21.0384 18.3162 22.0284 19.5375 22.0284Z" stroke="#263151"/>
<path fill-rule="evenodd" clip-rule="evenodd" d="M19.5376 20.4189C19.87 20.4189 20.1395 20.1494 20.1395 19.817C20.1395 19.4846 19.87 19.2151 19.5376 19.2151C19.2052 19.2151 18.9357 19.4846 18.9357 19.817C18.9357 20.1494 19.2052 20.4189 19.5376 20.4189Z" stroke="#263151"/>
<path fill-rule="evenodd" clip-rule="evenodd" d="M6.52484 22.0284C7.74614 22.0284 8.7362 21.0384 8.7362 19.8171C8.7362 18.5958 7.74614 17.6057 6.52484 17.6057C5.30354 17.6057 4.31348 18.5958 4.31348 19.8171C4.31348 21.0384 5.30354 22.0284 6.52484 22.0284Z" stroke="#263151"/>
<path fill-rule="evenodd" clip-rule="evenodd" d="M6.52465 20.4189C6.85708 20.4189 7.12657 20.1494 7.12657 19.817C7.12657 19.4846 6.85708 19.2151 6.52465 19.2151C6.19222 19.2151 5.92273 19.4846 5.92273 19.817C5.92273 20.1494 6.19222 20.4189 6.52465 20.4189Z" stroke="#263151"/>
<path d="M19.6987 12.9346V8.11304" stroke="#263151"/>
<path d="M23.0054 12.9346H16.8126" stroke="#263151"/>
<path d="M20.7718 6.80462C20.7718 6.80462 19.5845 5.2018 18.156 5.2041" stroke="#263151"/>
</g>
<defs>
<clipPath id="clip0">
<rect width="24" height="23.04" fill="white"/>
</clipPath>
</defs>
</svg>
