<svg width="24" height="24" viewBox="0 0 24 24" fill="none" xmlns="http://www.w3.org/2000/svg">
<path d="M16.0187 13.8641V10.773C16.0187 10.773 16.3351 4.72158 8.50391 7.49018" stroke="#263151"/>
<path d="M16.0188 11.6826C16.0188 11.6826 7.07465 9.18037 7.63385 14.293C8.18755 19.3556 15.7419 16.7573 16.0188 13.864C16.0188 13.864 15.7349 17.1643 18.7768 17.1643C21.8187 17.1643 23.5913 14.1289 23.264 10.7277C22.6239 5.12997 17.837 0.783569 12.0267 0.783569C5.78025 0.783569 0.716553 5.80687 0.716553 12.0036C0.716553 18.2003 5.78025 23.2236 12.0267 23.2236C14.5261 23.2236 16.8362 22.4193 18.7082 21.0574" stroke="#263151"/>
</svg>
