<svg width="80" height="72" viewBox="0 0 80 72" fill="none" xmlns="http://www.w3.org/2000/svg">
<path d="M61.5 71.625H26.5C25.75 71.625 25.25 71.125 25.25 70.375V49.125H62.75V70.375C62.75 71.125 62.25 71.625 61.5 71.625Z" fill="#FFA726"/>
<path d="M27.75 69.125H60.25" stroke="#F57C00" stroke-miterlimit="10" stroke-linecap="round" stroke-linejoin="round"/>
<path d="M36.5 61.625H29V66.625H36.5V61.625Z" fill="#FFA726"/>
<path d="M24 39.125V47.875C24 48.625 24.5 49.125 25.25 49.125H62.75C63.5 49.125 64 48.625 64 47.875V39.125C64 38.375 63.5 37.875 62.75 37.875H25.25C24.625 37.875 24 38.375 24 39.125Z" fill="#FFA726"/>
<path d="M64.375 22.875H23.125C22.375 22.875 21.875 22.375 21.875 21.625V9.125C21.875 8.375 22.375 7.875 23.125 7.875H64.375C65.125 7.875 65.625 8.375 65.625 9.125V21.625C65.625 22.375 65 22.875 64.375 22.875Z" fill="#BFCFDF"/>
<path d="M24.375 10.375H63.125H24.375Z" stroke="#E1F5FE" stroke-miterlimit="10" stroke-linecap="round" stroke-linejoin="round"/>
<path d="M63.125 20.375H24.375H63.125Z" stroke="#DAE7ED" stroke-miterlimit="10" stroke-linecap="round" stroke-linejoin="round"/>
<path d="M67.375 22.0001L78.375 16.5001C79.25 16.0001 79.25 14.7501 78.375 14.2501L67.375 8.75006C66.5 8.37506 65.625 9.00006 65.625 9.87506V20.8751C65.625 21.7501 66.625 22.3751 67.375 22.0001Z" fill="#EEEEEE"/>
<path d="M22.625 0.375H9.49999C8.49999 0.375 7.87499 1.625 8.49999 2.375L11.875 6.5C12.625 7.375 13.625 7.875 14.75 7.875H27.875C28.875 7.875 29.5 6.625 28.875 5.875L25.5 1.75C24.75 0.875 23.75 0.375 22.625 0.375Z" fill="#EC407A"/>
<path d="M22.625 30.375H9.49999C8.49999 30.375 7.87499 29.125 8.49999 28.375L11.875 24.25C12.625 23.375 13.625 22.875 14.75 22.875H27.875C28.875 22.875 29.5 24.125 28.875 24.875L25.5 29C24.75 29.875 23.75 30.375 22.625 30.375Z" fill="#EC407A"/>
<path d="M0.875 51.625H19.625" stroke="#8CA3B9" stroke-miterlimit="10" stroke-linecap="round" stroke-linejoin="round"/>
<path d="M4.625 57.875H19.625" stroke="#8CA3B9" stroke-miterlimit="10" stroke-linecap="round" stroke-linejoin="round"/>
<path d="M21.875 19.125H18.125C17.375 19.125 16.875 18.625 16.875 17.875V12.875C16.875 12.125 17.375 11.625 18.125 11.625H21.875V19.125Z" fill="#8CA3B9"/>
<path d="M11.5 18.75L2.875 16.625C1.625 16.25 1.625 14.5 2.875 14.25L11.5 12.125C12.25 11.875 13 12.5 13 13.375V17.625C13.125 18.375 12.375 18.875 11.5 18.75Z" fill="#FFA726"/>
<path d="M26.5 40.375H61.5" stroke="#FFCC80" stroke-miterlimit="10" stroke-linecap="round" stroke-linejoin="round"/>
<path d="M46.5 7.875H41.5V71.625H46.5V7.875Z" fill="#EEEEEE"/>
</svg>
