<svg width="24" height="24" viewBox="0 0 24 24" fill="none" xmlns="http://www.w3.org/2000/svg">
<g clip-path="url(#clip0)">
<g clip-path="url(#clip1)">
<path fill-rule="evenodd" clip-rule="evenodd" d="M14.8995 15.2746C14.7247 15.0978 14.4419 15.0926 14.2581 15.2629C14.2581 15.2629 12.9458 16.5471 12.8589 16.6274C12.8374 16.6487 12.8137 16.6655 12.7867 16.6792C11.422 17.3704 6.49601 12.0966 7.43575 11.1049L8.83994 9.72897C9.02186 9.54993 9.02263 9.25741 8.84628 9.07905L4.25057 4.39281C4.16551 4.30564 4.04868 4.2561 3.92685 4.25514C3.80455 4.25418 3.6882 4.30228 3.60045 4.38724C1.29914 6.64641 -2.39004 8.91834 6.22855 17.709C14.7344 26.3834 17.1729 23.0959 19.5206 20.5712C19.6893 20.3906 19.6847 20.1098 19.5125 19.9342L14.8995 15.2746V15.2746Z" stroke="#263151"/>
</g>
</g>
<defs>
<clipPath id="clip0">
<rect width="23.04" height="24" fill="white"/>
</clipPath>
<clipPath id="clip1">
<rect width="23.04" height="23.04" fill="white" transform="translate(0 0.959961)"/>
</clipPath>
</defs>
</svg>
