<svg width="80" height="80" viewBox="0 0 80 80" fill="none" xmlns="http://www.w3.org/2000/svg">
<path d="M21.5 31.25L17 26.75C15.5 25.25 13.125 25.25 11.75 26.75L7 31.5C4.75 33.75 3.375 36.875 3.375 40.125C3.375 40.25 3.375 40.5 3.375 40.625C3.375 60.625 19.625 76.875 39.625 76.875C39.75 76.875 40 76.875 40.125 76.875C43.375 76.875 46.375 75.5 48.75 73.25L53.5 68.5C55 67 55 64.625 53.5 63.25L48.75 58.5C47.25 57 44.875 57 43.5 58.5L37 65C36.125 65.875 34.75 66.25 33.5 66C23.75 63.75 16.25 56.25 13.875 46.625C13.625 45.375 14 44 14.875 43.125L21.375 36.625C22.875 35.125 22.875 32.75 21.5 31.25Z" fill="#BFCFDF"/>
<path d="M46.75 71.375C44.875 73.25 42.5 74.25 39.875 74.25C39.75 74.25 39.625 74.25 39.375 74.25C20.75 74.25 5.625 59.125 5.625 40.5V40C5.625 37.5 6.75 35 8.5 33.125" stroke="#8CA3B9" stroke-miterlimit="10" stroke-linecap="round" stroke-linejoin="round"/>
<path d="M21.875 21.875C21.125 22.625 20 22.625 19.25 21.875L14 16.625C13.25 15.875 13.25 14.75 14 14C14.75 13.25 15.875 13.25 16.625 14L21.875 19.25C22.5 20 22.5 21.25 21.875 21.875Z" fill="#FFA726"/>
<path d="M30.125 16.3749C29.125 16.7499 28.125 16.3749 27.625 15.3749L24.75 8.49994C24.375 7.49994 24.75 6.49994 25.75 5.99994C26.75 5.62494 27.75 5.99994 28.25 6.99994L31.125 13.8749C31.5 14.8749 31.125 15.9999 30.125 16.3749Z" fill="#FFA726"/>
<path d="M40 14.375C39 14.375 38.125 13.5 38.125 12.5V5C38.125 4 39 3.125 40 3.125C41 3.125 41.875 4 41.875 5V12.5C41.875 13.625 41 14.375 40 14.375Z" fill="#FFA726"/>
<path d="M49.7501 16.3749C48.7501 15.9999 48.3751 14.8749 48.7501 13.8749L51.6251 6.99994C52.0001 5.99994 53.1251 5.62494 54.1251 5.99994C55.1251 6.37494 55.5001 7.49994 55.1251 8.49994L52.2501 15.3749C51.7501 16.2499 50.7501 16.7499 49.7501 16.3749Z" fill="#FFA726"/>
<path d="M58.125 21.875C57.375 21.125 57.375 20 58.125 19.25L63.375 14C64.125 13.25 65.25 13.25 66 14C66.75 14.75 66.75 15.875 66 16.625L60.75 21.875C60 22.625 58.75 22.625 58.125 21.875Z" fill="#FFA726"/>
<path d="M63.625 30.2501C63.25 29.2501 63.625 28.2501 64.625 27.7501L71.5 24.8751C72.5 24.5001 73.5 24.8751 74 25.8751C74.375 26.8751 74 27.8751 73 28.3751L66.125 31.2501C65.125 31.6251 64 31.2501 63.625 30.2501Z" fill="#FFA726"/>
<path d="M65.625 40C65.625 39 66.5 38.125 67.5 38.125H75C76 38.125 76.875 39 76.875 40C76.875 41 76 41.875 75 41.875H67.5C66.375 41.875 65.625 41.125 65.625 40Z" fill="#FFA726"/>
<path d="M63.6251 49.8749C64.0001 48.8749 65.1251 48.4999 66.1251 48.8749L73.0001 51.7499C74.0001 52.1249 74.3751 53.2499 74.0001 54.2499C73.6251 55.2499 72.5001 55.6249 71.5001 55.2499L64.6251 52.3749C63.7501 51.8749 63.2501 50.8749 63.6251 49.8749Z" fill="#FFA726"/>
<path d="M58.125 58.125C58.875 57.375 60 57.375 60.75 58.125L66 63.375C66.75 64.125 66.75 65.25 66 66C65.25 66.75 64.125 66.75 63.375 66L58.125 60.75C57.375 60.125 57.375 58.875 58.125 58.125Z" fill="#FFA726"/>
<path d="M40 45.875H30.125C29.375 45.875 28.625 45.375 28.375 44.625C28.125 43.875 28.375 43 29 42.5L37.375 35.625C37.875 35.25 38.125 34.625 38.125 34C38.125 33 37.25 32.125 36.25 32.125H33.75C32.75 32.125 31.875 33 31.875 34V34.625C31.875 35.625 31 36.5 30 36.5C29 36.5 28.125 35.625 28.125 34.625V34C28.125 30.875 30.625 28.375 33.75 28.375H36.25C39.375 28.375 41.875 30.875 41.875 34C41.875 35.75 41.125 37.375 39.75 38.5L35.375 42.125H40C41 42.125 41.875 43 41.875 44C41.875 45 41 45.875 40 45.875Z" fill="#EC407A"/>
<path d="M53.7501 35.25C52.7501 35.25 51.8751 36.125 51.8751 37.125V42.125H46.5001L48.1251 37.75C48.5001 36.75 48.0001 35.75 47.0001 35.375C46.0001 35 45.0001 35.5 44.6251 36.5L42.0001 43.375C41.7501 44 41.8751 44.625 42.2501 45.125C42.6251 45.625 43.1251 46 43.7501 46H51.8751V51C51.8751 52 52.7501 52.875 53.7501 52.875C54.7501 52.875 55.6251 52 55.6251 51V37.25C55.6251 36.125 54.7501 35.25 53.7501 35.25Z" fill="#EC407A"/>
<path d="M21.5 36.625C23 35.125 23 32.75 21.5 31.375L17 26.875C15.5 25.375 13.125 25.375 11.75 26.875L10 28.625L19.875 38.5L21.5 36.625Z" fill="#EEEEEE"/>
<path d="M53.25 63.125L48.75 58.5C47.25 57 44.875 57 43.5 58.5L41.75 60.25L51.625 70.125L53.375 68.375C54.75 66.875 54.75 64.5 53.25 63.125Z" fill="#EEEEEE"/>
</svg>
