<svg width="24" height="24" viewBox="0 0 24 24" fill="none" xmlns="http://www.w3.org/2000/svg">
<g clip-path="url(#clip0)">
<path fill-rule="evenodd" clip-rule="evenodd" d="M22.0564 18.2497C18.5017 16.876 14.5555 15.1703 14.224 14.1073V12.9922C14.9613 12.2379 15.543 11.1858 15.8872 9.95401C16.708 9.37763 16.9237 8.18108 16.2352 7.33417V4.83817C16.2352 2.26134 14.8003 0.497437 11.5199 0.497437C8.32418 0.497437 6.80296 2.26134 6.80296 4.83817V7.33513C6.11704 8.17955 6.33016 9.3758 7.15106 9.95363C7.49522 11.1858 8.07726 12.2379 8.81512 12.9922V14.1073C8.4844 15.1689 4.53736 16.875 0.982672 18.2497C0.679696 18.3673 0.479248 18.662 0.479248 18.9914V21.7801C0.479248 22.218 0.829456 22.5739 1.26136 22.5739H21.7777C22.2096 22.5739 22.5598 22.218 22.5598 21.7801V18.9914C22.5599 18.662 22.3594 18.3664 22.0564 18.2497V18.2497Z" stroke="#263151"/>
</g>
<defs>
<clipPath id="clip0">
<rect width="24" height="24" fill="white"/>
</clipPath>
</defs>
</svg>
